<svg xmlns="http://www.w3.org/2000/svg" width="1200" height="675" viewBox="0 0 1200 675" version="1.1">
	<path d="M 587.101 30.021 C 581.382 32.199, 575.982 34.098, 575.101 34.240 C 574.220 34.383, 573.275 34.764, 573 35.086 C 572.725 35.409, 559.675 39.974, 544 45.231 C 528.325 50.488, 512.913 55.769, 509.750 56.967 L 504 59.144 504 309.572 C 504 447.307, 503.739 560, 503.420 560 C 503.101 560, 498.938 558.584, 494.170 556.853 C 489.401 555.122, 475.375 550.250, 463 546.025 L 440.500 538.344 440.248 310.172 C 440.039 121.502, 439.766 82, 438.670 82 C 437.941 82, 434.680 83.072, 431.422 84.382 C 428.165 85.693, 412.225 91.286, 396 96.812 C 379.775 102.339, 358.400 109.752, 348.500 113.286 C 338.600 116.820, 319.475 123.431, 306 127.976 C 292.525 132.521, 281.050 136.576, 280.500 136.987 C 279.950 137.398, 276.350 138.755, 272.500 140.004 C 268.650 141.253, 261.788 143.605, 257.250 145.232 L 249 148.189 249 309.595 C 249 398.368, 248.887 470.993, 248.750 470.985 C 247.276 470.897, 194.225 452.897, 189 450.713 C 187.625 450.138, 186.050 449.630, 185.500 449.584 C 184.840 449.528, 184.414 402.178, 184.247 310.250 C 184.107 233.662, 183.845 171, 183.664 171 C 183.003 171, 139.223 185.940, 130 189.313 L 120.500 192.788 120.254 343.144 L 120.007 493.500 143.754 501.809 C 156.814 506.378, 182.350 515.242, 200.500 521.505 C 218.650 527.769, 238.450 534.728, 244.500 536.972 C 250.550 539.215, 260.225 542.586, 266 544.463 C 271.775 546.340, 284.349 550.604, 293.942 553.938 C 303.534 557.272, 311.634 560, 311.942 560 C 312.249 560, 312.500 477.316, 312.500 376.259 L 312.500 192.517 342 182.298 C 358.225 176.678, 372.738 171.801, 374.250 171.461 L 377 170.841 377 376.843 L 377 582.845 380.750 584.041 C 382.813 584.698, 385.850 585.853, 387.500 586.608 C 389.150 587.362, 404.931 592.882, 422.569 598.874 C 440.207 604.866, 459.557 611.610, 465.569 613.861 C 471.581 616.112, 489.550 622.412, 505.500 627.861 C 521.450 633.310, 541.615 640.296, 550.310 643.384 C 559.006 646.473, 566.543 649, 567.060 649 C 567.644 649, 568 545.864, 568 376.513 L 568 104.027 571.250 102.681 C 573.038 101.941, 580.204 99.394, 587.175 97.020 L 599.850 92.706 615.675 98.107 L 631.500 103.509 631.752 376.255 C 631.908 545.215, 632.361 649, 632.942 649 C 633.457 649, 640.994 646.472, 649.690 643.382 C 658.385 640.293, 679 633.142, 695.500 627.491 C 712 621.841, 731.575 614.980, 739 612.244 C 746.425 609.508, 765.550 602.873, 781.500 597.501 C 797.450 592.128, 810.950 587.402, 811.500 586.998 C 812.050 586.595, 814.862 585.494, 817.750 584.552 L 823 582.839 823 376.920 C 823 256.942, 823.372 171, 823.892 171 C 824.791 171, 840.607 176.305, 871 186.802 L 887.500 192.500 887.753 376.250 C 887.892 477.313, 888.176 560, 888.384 560 C 888.592 560, 896.579 557.273, 906.131 553.940 C 915.684 550.606, 928.225 546.343, 934 544.465 C 939.775 542.587, 949.450 539.215, 955.500 536.973 C 961.550 534.730, 981.350 527.768, 999.500 521.500 C 1017.650 515.233, 1041.500 506.922, 1052.500 503.031 C 1063.500 499.141, 1074.188 495.500, 1076.250 494.941 L 1080 493.923 1079.964 343.211 L 1079.929 192.500 1070.214 189.197 C 1064.872 187.380, 1050.643 182.543, 1038.596 178.447 C 1026.548 174.351, 1016.536 171, 1016.346 171 C 1016.156 171, 1016 233.502, 1016 309.893 C 1016 441.237, 1015.905 448.824, 1014.250 449.490 C 1007.190 452.329, 952.700 470.924, 951.250 470.989 C 951.112 470.995, 951 398.368, 951 309.595 L 951 148.189 942.750 145.232 C 938.212 143.605, 931.350 141.253, 927.500 140.004 C 923.650 138.755, 920.050 137.398, 919.500 136.987 C 918.950 136.576, 906.800 132.306, 892.500 127.497 C 878.200 122.688, 858.400 115.835, 848.500 112.268 C 838.600 108.702, 817 101.163, 800.500 95.517 C 784 89.870, 768.138 84.301, 765.252 83.141 L 760.004 81.031 759.752 309.703 L 759.500 538.375 737 546.022 C 724.625 550.228, 710.599 555.094, 705.830 556.835 C 701.062 558.576, 696.899 560, 696.580 560 C 696.261 560, 696 447.307, 696 309.572 L 696 59.144 690.250 56.967 C 687.087 55.770, 671.450 50.386, 655.500 45.003 C 639.550 39.619, 621.005 33.142, 614.289 30.608 C 607.573 28.073, 601.048 26.014, 599.789 26.031 C 598.530 26.048, 592.820 27.844, 587.101 30.021" stroke="none" fill="none" fill-rule="evenodd"/>
</svg>